<?xml version="1.0" standalone="no"?><!DOCTYPE svg PUBLIC "-//W3C//DTD SVG 1.1//EN"
        "http://www.w3.org/Graphics/SVG/1.1/DTD/svg11.dtd">
<svg viewBox="0 0 2005 1024" version="1.1" xmlns="http://www.w3.org/2000/svg"
     xmlns:xlink="http://www.w3.org/1999/xlink" width="250.625" height="128">
    <path d="M1962.666667 0a42.666667 42.666667 0 0 1 42.666666 42.666667v938.666666a42.666667 42.666667 0 0 1-42.666666 42.666667H42.666667a42.666667 42.666667 0 0 1-42.666667-42.666667V42.666667a42.666667 42.666667 0 0 1 42.666667-42.666667h1920zM106.666667 725.333333H64v234.666667h234.666667v-42.666667H106.656L106.666667 725.333333z m853.333333 192H725.333333v42.666667h234.666667v-42.666667z m650.666667 0h-234.666667v42.666667h234.666667v-42.666667z m-981.333334 0H394.666667v42.666667h234.666666v-42.666667z m650.666667 0H1045.333333v42.666667h234.666667v-42.666667z m661.333333-192h-42.666666v192h-192v42.666667h234.666666V725.333333zM450.624 288.032a36.48 36.48 0 0 0-51.605333 0.096l-25.781334 25.866667a36.48 36.48 0 0 0 0 51.509333L721.066667 714.538667l0.096 0.096a36.48 36.48 0 0 0 51.594666-0.096l25.781334-25.866667a36.48 36.48 0 0 0 0-51.509333L450.709333 288.128a71.936 71.936 0 0 0-0.085333-0.096z m801.557333 0a36.48 36.48 0 0 0-51.594666 0.096l-25.781334 25.866667a36.48 36.48 0 0 0 0 51.509333l347.818667 349.034667 0.085333 0.096a36.48 36.48 0 0 0 51.605334-0.096l25.781333-25.866667a36.48 36.48 0 0 0 0-51.509333L1252.266667 288.128z m-400.778666 0a36.48 36.48 0 0 0-51.605334 0.096l-25.770666 25.866667a36.48 36.48 0 0 0 0 51.509333l347.818666 349.034667 0.085334 0.096a36.48 36.48 0 0 0 51.605333-0.096l25.770667-25.866667a36.48 36.48 0 0 0 0-51.509333L851.488 288.128a71.936 71.936 0 0 0-0.085333-0.096zM106.666667 394.666667H64v234.666666h42.666667V394.666667z m1834.666666 0h-42.666666v234.666666h42.666666V394.666667zM298.666667 64H64v234.666667h42.666667V106.666667h192V64z m1642.666666 0h-234.666666v42.666667h192v192h42.666666V64zM960 64H725.333333v42.666667h234.666667V64z m650.666667 0h-234.666667v42.666667h234.666667V64zM629.333333 64H394.666667v42.666667h234.666666V64z m650.666667 0H1045.333333v42.666667h234.666667V64z"
          fill="#0a66c2"/>
</svg>
